<svg width="80" height="81" viewBox="0 0 80 81" fill="none" xmlns="http://www.w3.org/2000/svg">
<path d="M40.4 56.6C40.4 57.04 40.74 57.4 41.15 57.4H59.65C60.06 57.4 60.4 57.04 60.4 56.6V51.8C60.4 51.36 60.06 51 59.65 51H41.15C40.74 51 40.4 51.36 40.4 51.8V56.6ZM20.91 57.21L40.11 41.11C40.49 40.79 40.49 40.2 40.11 39.88L20.91 23.79C20.7941 23.6914 20.6523 23.6282 20.5016 23.6078C20.3508 23.5874 20.1973 23.6107 20.0594 23.6749C19.9215 23.7392 19.8049 23.8416 19.7234 23.9701C19.642 24.0987 19.5992 24.2479 19.6 24.4V30.67C19.6 30.91 19.7 31.13 19.89 31.28L30.87 40.5L19.89 49.72C19.8006 49.7948 19.7284 49.8881 19.6784 49.9933C19.6283 50.0986 19.6016 50.2134 19.6 50.33V56.6C19.6 57.28 20.39 57.65 20.91 57.21ZM76.8 0.5H3.2C1.43 0.5 0 1.93 0 3.7V77.3C0 79.07 1.43 80.5 3.2 80.5H76.8C78.57 80.5 80 79.07 80 77.3V3.7C80 1.93 78.57 0.5 76.8 0.5ZM72.8 73.3H7.2V7.7H72.8V73.3Z" fill="white"/>
</svg>
