<svg width="80" height="81" viewBox="0 0 80 81" fill="none" xmlns="http://www.w3.org/2000/svg">
<path d="M34.2863 57.4884C32.3053 57.2686 30.3569 56.818 28.4806 56.1456C28.5377 54.797 28.572 53.3912 28.572 51.9284V51.4712V50.0026C30.3434 50.8484 32.2692 51.4369 34.2863 51.7284V37.6425C34.2863 35.3692 35.1894 33.189 36.7969 31.5815C38.4043 29.9741 40.5845 29.071 42.8579 29.071H56.9437C56.488 25.9046 55.2794 22.8937 53.4193 20.291C51.5593 17.6884 49.102 15.5698 46.2539 14.1133C43.4057 12.6567 40.2496 11.9046 37.0507 11.9201C33.8517 11.9356 30.7031 12.7182 27.8691 14.2023C27.4171 12.3333 26.6727 10.5475 25.6634 8.91079C29.3678 7.06177 33.464 6.13458 37.6036 6.20803C41.7432 6.28148 45.8038 7.3534 49.4403 9.33266C53.0768 11.3119 56.1817 14.14 58.4908 17.5765C60.8 21.013 62.2453 24.9562 62.7038 29.071H71.4296C73.7029 29.071 75.8831 29.9741 77.4906 31.5815C79.098 33.189 80.0011 35.3692 80.0011 37.6425V66.2142C80.0011 68.4875 79.098 70.6677 77.4906 72.2752C75.8831 73.8827 73.7029 74.7857 71.4296 74.7857H42.8579C40.5845 74.7857 38.4043 73.8827 36.7969 72.2752C35.1894 70.6677 34.2863 68.4875 34.2863 66.2142V57.4884ZM62.7038 34.7853C62.0545 40.5831 59.4539 45.988 55.3286 50.1133C51.2034 54.2385 45.7984 56.8391 40.0007 57.4884V66.2142C40.0007 66.972 40.3017 67.6987 40.8375 68.2346C41.3733 68.7704 42.1001 69.0714 42.8579 69.0714H71.4296C72.1873 69.0714 72.9141 68.7704 73.4499 68.2346C73.9857 67.6987 74.2867 66.972 74.2867 66.2142V37.6425C74.2867 36.8847 73.9857 36.158 73.4499 35.6222C72.9141 35.0864 72.1873 34.7853 71.4296 34.7853H62.7038ZM56.9437 34.7853H42.8579C42.1001 34.7853 41.3733 35.0864 40.8375 35.6222C40.3017 36.158 40.0007 36.8847 40.0007 37.6425V51.7284C44.2749 51.1106 48.2345 49.1266 51.2883 46.0729C54.342 43.0192 56.3259 39.0595 56.9437 34.7853Z" fill="white"/>
<path d="M21.6849 37.991C21.0848 35.7853 20.1134 33.5738 18.4448 31.8766C21.142 29.3223 22.8563 25.2537 22.8563 20.4994C22.8563 16.5165 22.0506 13.7793 20.5934 11.5907C19.9468 10.6494 19.1996 9.78142 18.3648 9.00212C18.0449 8.69325 17.7211 8.38846 17.3934 8.08783C17.0448 7.76211 16.7248 7.46496 16.3077 7.04781C15.4505 6.19066 15.3534 5.50494 15.3534 5.14494C15.3543 4.94483 15.3871 4.74616 15.4505 4.55636C15.7118 3.99136 15.7814 3.35649 15.6487 2.74831C15.5161 2.14013 15.1884 1.5919 14.7156 1.18701C14.2428 0.782116 13.6507 0.542709 13.0294 0.505195C12.408 0.467681 11.7914 0.634113 11.2733 0.979182L11.2619 0.984896L11.2447 0.996325L11.1933 1.03061L11.0219 1.1449C10.1647 1.75628 9.33891 2.41045 8.54758 3.10492C7.11899 4.36779 5.25611 6.23638 3.9361 8.46497C2.7838 10.3126 1.85899 12.2927 1.18179 14.3622C0.496065 16.4136 -0.00108337 18.6365 -0.00108337 20.4994C-0.00108337 25.2537 1.71322 29.3166 4.41039 31.8824C2.7418 33.5738 1.77036 35.7853 1.17036 37.9967C-0.00108312 42.2939 -0.00108337 47.6082 -0.00108337 51.7169V51.9283C-0.00108337 63.6884 2.19894 70.6713 4.69039 74.8257C5.94183 76.9057 7.24471 78.2486 8.33615 79.0943C8.91771 79.5479 9.55064 79.9315 10.2219 80.2371C10.6101 80.3789 11.0157 80.4673 11.4276 80.5C11.9076 80.5 12.6333 80.2371 12.6333 80.2371C13.3046 79.9315 13.9375 79.5479 14.5191 79.0943C15.6048 78.2486 16.9191 76.9057 18.1648 74.8257C20.6563 70.677 22.8563 63.6884 22.8563 51.9283V51.7226C22.8563 47.6082 22.8563 42.2996 21.6849 37.991ZM8.49615 35.8767C9.14187 35.2253 10.0047 34.7852 11.4276 34.7852C12.8562 34.7852 13.7133 35.231 14.3591 35.871C15.0791 36.5967 15.7019 37.7738 16.1705 39.4939C17.1191 42.9853 17.1419 47.5682 17.1419 51.9283C17.1419 63.0255 15.0562 68.8999 13.2619 71.8885C12.5762 73.0313 11.9305 73.7685 11.4276 74.2314C10.7091 73.5405 10.0916 72.7518 9.5933 71.8885C7.799 68.8942 5.71326 63.0255 5.71326 51.9283C5.71326 47.5682 5.73612 42.9853 6.6847 39.4939C7.15328 37.7796 7.77614 36.5967 8.49615 35.871V35.8767ZM11.4276 29.0709C9.22758 29.0709 5.71326 26.6252 5.71326 20.4994C5.71326 19.5108 6.01041 17.9451 6.6047 16.1736C7.14626 14.5012 7.89291 12.9024 8.82758 11.4136C9.32473 10.5736 9.97045 9.75642 10.6676 9.00784C11.0619 9.70499 11.5819 10.4079 12.2676 11.0936C12.6848 11.5107 13.2276 12.0136 13.6905 12.4479L14.3991 13.1107C14.9991 13.6936 15.4619 14.2022 15.8334 14.7679C16.5191 15.7908 17.1419 17.3393 17.1419 20.4994C17.1419 26.6252 13.6276 29.0709 11.4276 29.0709Z" fill="white"/>
</svg>
