<svg width="80" height="81" viewBox="0 0 80 81" fill="none" xmlns="http://www.w3.org/2000/svg">
<path d="M20 73.8333H70V67.1666H20.04C18.5 67.1266 16.6667 66.5166 16.6667 63.8333C16.6667 61.15 18.5 60.54 20.04 60.5H70V13.8333C70 10.1566 67.01 7.16663 63.3333 7.16663H20C15.98 7.16663 10 9.82996 10 17.1666V63.8333C10 71.17 15.98 73.8333 20 73.8333ZM16.6667 27.1666V17.1666C16.6667 14.4833 18.5 13.8733 20 13.8333H63.3333V53.8333H16.6667V27.1666Z" fill="white"/>
<path d="M26.6663 20.5H56.6663V27.1667H26.6663V20.5Z" fill="white"/>
</svg>
