<svg width="96" height="81" viewBox="0 0 96 81" fill="none" xmlns="http://www.w3.org/2000/svg">
<path d="M94.7572 2.85294H26.4917C25.9774 2.85294 25.5566 3.27647 25.5566 3.79412V10.3824C25.5566 10.9 25.9774 11.3235 26.4917 11.3235H94.7572C95.2715 11.3235 95.6923 10.9 95.6923 10.3824V3.79412C95.6923 3.27647 95.2715 2.85294 94.7572 2.85294ZM94.7572 36.2647H26.4917C25.9774 36.2647 25.5566 36.6882 25.5566 37.2059V43.7941C25.5566 44.3118 25.9774 44.7353 26.4917 44.7353H94.7572C95.2715 44.7353 95.6923 44.3118 95.6923 43.7941V37.2059C95.6923 36.6882 95.2715 36.2647 94.7572 36.2647ZM94.7572 69.6765H26.4917C25.9774 69.6765 25.5566 70.1 25.5566 70.6177V77.2059C25.5566 77.7235 25.9774 78.1471 26.4917 78.1471H94.7572C95.2715 78.1471 95.6923 77.7235 95.6923 77.2059V70.6177C95.6923 70.1 95.2715 69.6765 94.7572 69.6765ZM0.307693 7.08824C0.307693 7.95342 0.477011 8.81012 0.805979 9.60944C1.13495 10.4088 1.61712 11.135 2.22497 11.7468C2.83283 12.3586 3.55445 12.8439 4.34865 13.175C5.14285 13.5061 5.99406 13.6765 6.8537 13.6765C7.71333 13.6765 8.56454 13.5061 9.35874 13.175C10.1529 12.8439 10.8746 12.3586 11.4824 11.7468C12.0903 11.135 12.5724 10.4088 12.9014 9.60944C13.2304 8.81012 13.3997 7.95342 13.3997 7.08824C13.3997 6.22306 13.2304 5.36635 12.9014 4.56703C12.5724 3.76771 12.0903 3.04142 11.4824 2.42965C10.8746 1.81788 10.1529 1.33259 9.35874 1.0015C8.56454 0.670409 7.71333 0.5 6.8537 0.5C5.99406 0.5 5.14285 0.670409 4.34865 1.0015C3.55445 1.33259 2.83283 1.81788 2.22497 2.42965C1.61712 3.04142 1.13495 3.76771 0.805979 4.56703C0.477011 5.36635 0.307693 6.22306 0.307693 7.08824ZM0.307693 40.5C0.307693 41.3652 0.477011 42.2219 0.805979 43.0212C1.13495 43.8205 1.61712 44.5468 2.22497 45.1586C2.83283 45.7704 3.55445 46.2556 4.34865 46.5867C5.14285 46.9178 5.99406 47.0882 6.8537 47.0882C7.71333 47.0882 8.56454 46.9178 9.35874 46.5867C10.1529 46.2556 10.8746 45.7704 11.4824 45.1586C12.0903 44.5468 12.5724 43.8205 12.9014 43.0212C13.2304 42.2219 13.3997 41.3652 13.3997 40.5C13.3997 39.6348 13.2304 38.7781 12.9014 37.9788C12.5724 37.1795 12.0903 36.4532 11.4824 35.8414C10.8746 35.2296 10.1529 34.7444 9.35874 34.4133C8.56454 34.0822 7.71333 33.9118 6.8537 33.9118C5.99406 33.9118 5.14285 34.0822 4.34865 34.4133C3.55445 34.7444 2.83283 35.2296 2.22497 35.8414C1.61712 36.4532 1.13495 37.1795 0.805979 37.9788C0.477011 38.7781 0.307693 39.6348 0.307693 40.5ZM0.307693 73.9118C0.307693 74.7769 0.477011 75.6337 0.805979 76.433C1.13495 77.2323 1.61712 77.9586 2.22497 78.5704C2.83283 79.1821 3.55445 79.6674 4.34865 79.9985C5.14285 80.3296 5.99406 80.5 6.8537 80.5C7.71333 80.5 8.56454 80.3296 9.35874 79.9985C10.1529 79.6674 10.8746 79.1821 11.4824 78.5704C12.0903 77.9586 12.5724 77.2323 12.9014 76.433C13.2304 75.6337 13.3997 74.7769 13.3997 73.9118C13.3997 73.0466 13.2304 72.1899 12.9014 71.3906C12.5724 70.5912 12.0903 69.865 11.4824 69.2532C10.8746 68.6414 10.1529 68.1561 9.35874 67.825C8.56454 67.4939 7.71333 67.3235 6.8537 67.3235C5.99406 67.3235 5.14285 67.4939 4.34865 67.825C3.55445 68.1561 2.83283 68.6414 2.22497 69.2532C1.61712 69.865 1.13495 70.5912 0.805979 71.3906C0.477011 72.1899 0.307693 73.0466 0.307693 73.9118Z" fill="white"/>
</svg>
