<svg width="314" height="336" viewBox="0 0 314 336" fill="none" xmlns="http://www.w3.org/2000/svg">
<rect width="314" height="336" fill="url(#paint0_linear)"/>
<path d="M42.5591 278.48C37.5351 278.48 33.7431 277.12 31.1831 274.4C28.6231 271.68 27.3431 267.536 27.3431 261.968C27.3431 250.96 32.4151 245.456 42.5591 245.456C44.2551 245.456 45.9351 245.664 47.5991 246.08C49.2631 246.496 50.8951 247.072 52.4951 247.808V252.56C50.9271 251.632 49.3591 250.96 47.7911 250.544C46.2551 250.096 44.7351 249.872 43.2311 249.872C39.7111 249.872 37.0871 250.816 35.3591 252.704C33.6631 254.592 32.8151 257.696 32.8151 262.016C32.8151 266.304 33.6631 269.376 35.3591 271.232C37.0871 273.088 39.7591 274.016 43.3751 274.016C44.8151 274.016 46.3031 273.824 47.8391 273.44C49.3751 273.024 50.9271 272.352 52.4951 271.424V276.176C51.0231 276.88 49.4231 277.44 47.6951 277.856C45.9671 278.272 44.2551 278.48 42.5591 278.48ZM68.9111 278.72C65.0071 278.72 62.0951 277.616 60.1751 275.408C58.2871 273.2 57.3431 270.048 57.3431 265.952C57.3431 261.632 58.3191 258.448 60.2711 256.4C62.2551 254.352 65.1191 253.328 68.8631 253.328C72.7991 253.328 75.7271 254.432 77.6471 256.64C79.5671 258.816 80.5271 261.92 80.5271 265.952C80.5271 270.016 79.5191 273.168 77.5031 275.408C75.4871 277.616 72.6231 278.72 68.9111 278.72ZM68.8631 274.448C71.2951 274.448 73.0071 273.664 73.9991 272.096C74.9911 270.528 75.4871 268.48 75.4871 265.952C75.4871 263.2 74.9751 261.12 73.9511 259.712C72.9271 258.272 71.2311 257.552 68.8631 257.552C66.4311 257.552 64.7351 258.304 63.7751 259.808C62.8151 261.28 62.3351 263.328 62.3351 265.952C62.3351 268.608 62.8311 270.688 63.8231 272.192C64.8151 273.696 66.4951 274.448 68.8631 274.448ZM96.9971 278.72C95.5251 278.72 94.0851 278.528 92.6771 278.144C91.2691 277.792 89.9891 277.152 88.8371 276.224C87.7171 275.264 86.8051 273.936 86.1011 272.24C85.4291 270.544 85.0931 268.352 85.0931 265.664C85.0931 261.888 86.0211 258.896 87.8771 256.688C89.7331 254.448 92.5491 253.328 96.3251 253.328C97.0611 253.328 98.0051 253.44 99.1571 253.664C100.309 253.888 101.381 254.224 102.373 254.672V243.824H107.365V272.912C107.365 273.936 107.045 274.816 106.405 275.552C105.797 276.288 104.981 276.896 103.957 277.376C102.933 277.824 101.813 278.16 100.597 278.384C99.3811 278.608 98.1811 278.72 96.9971 278.72ZM97.1411 274.352C98.5811 274.352 99.8131 274.176 100.837 273.824C101.861 273.472 102.373 273.008 102.373 272.432V259.04C101.541 258.56 100.645 258.208 99.6851 257.984C98.7571 257.76 97.8771 257.648 97.0451 257.648C94.6771 257.648 92.9491 258.352 91.8611 259.76C90.7731 261.136 90.2291 263.136 90.2291 265.76C90.2291 267.36 90.4211 268.816 90.8051 270.128C91.1891 271.408 91.8771 272.432 92.8691 273.2C93.8931 273.968 95.3171 274.352 97.1411 274.352ZM124.834 278.72C121.282 278.72 118.45 277.648 116.338 275.504C114.258 273.328 113.218 270.192 113.218 266.096C113.218 261.904 114.194 258.736 116.146 256.592C118.13 254.416 120.882 253.328 124.402 253.328C126.994 253.328 129.09 253.904 130.69 255.056C132.29 256.208 133.442 257.824 134.146 259.904C134.882 261.952 135.234 264.352 135.202 267.104H118.258C118.418 269.472 119.122 271.28 120.37 272.528C121.618 273.744 123.378 274.352 125.65 274.352C127.25 274.352 128.706 274.16 130.018 273.776C131.362 273.36 132.498 272.896 133.426 272.384V277.088C132.274 277.6 130.994 278 129.586 278.288C128.178 278.576 126.594 278.72 124.834 278.72ZM124.258 257.456C122.626 257.456 121.314 257.888 120.322 258.752C119.33 259.584 118.69 261.12 118.402 263.36H130.066C129.874 261.312 129.298 259.824 128.338 258.896C127.41 257.936 126.05 257.456 124.258 257.456ZM141.237 278V245.984H146.565V278H141.237ZM153.888 255.872C155.296 255.136 157.024 254.544 159.072 254.096C161.152 253.616 163.152 253.376 165.072 253.376C168.464 253.376 170.944 254.096 172.512 255.536C174.112 256.944 174.912 259.12 174.912 262.064V278H169.872V262.736C169.872 261.936 169.728 261.152 169.44 260.384C169.152 259.616 168.592 258.976 167.76 258.464C166.96 257.952 165.76 257.696 164.16 257.696C163.264 257.696 162.368 257.776 161.472 257.936C160.576 258.096 159.728 258.32 158.928 258.608V278H153.888V255.872ZM189.655 278L179.527 253.904H184.951L192.535 272.48L199.639 253.904H204.871L194.695 278H189.655ZM209.857 250.064V245.504H215.233V250.064H209.857ZM210.001 278V254.048H215.041L215.089 278H210.001ZM232.933 278.48C231.461 278.48 230.021 278.272 228.613 277.856C227.205 277.44 225.925 276.768 224.773 275.84C223.653 274.88 222.757 273.616 222.085 272.048C221.413 270.448 221.077 268.464 221.077 266.096C221.077 263.664 221.397 261.632 222.037 260C222.677 258.368 223.557 257.072 224.677 256.112C225.797 255.12 227.061 254.416 228.469 254C229.909 253.584 231.381 253.376 232.885 253.376C235.509 253.376 237.973 253.856 240.277 254.816V259.328C239.189 258.848 238.101 258.48 237.013 258.224C235.925 257.936 234.789 257.792 233.605 257.792C231.109 257.792 229.221 258.416 227.941 259.664C226.693 260.912 226.069 262.928 226.069 265.712C226.069 268.592 226.661 270.704 227.845 272.048C229.061 273.36 231.029 274.016 233.749 274.016C234.933 274.016 236.085 273.872 237.205 273.584C238.325 273.264 239.365 272.88 240.325 272.432V276.944C239.173 277.456 237.989 277.84 236.773 278.096C235.589 278.352 234.309 278.48 232.933 278.48ZM254.73 278.624C252.522 278.624 250.794 278.048 249.546 276.896C248.298 275.712 247.674 274.016 247.674 271.808V258.08H243.786V253.904H247.674V247.184H252.858V253.904H258.714V258.08H252.858V270.8C252.858 271.92 253.05 272.768 253.434 273.344C253.85 273.888 254.602 274.16 255.69 274.16C256.842 274.16 257.85 273.904 258.714 273.392V277.856C258.138 278.112 257.482 278.304 256.746 278.432C256.042 278.56 255.37 278.624 254.73 278.624ZM273.296 278.72C271.664 278.72 270.096 278.496 268.592 278.048C267.088 277.6 265.856 276.816 264.896 275.696C263.936 274.576 263.456 273.008 263.456 270.992C263.456 268.336 264.224 266.368 265.76 265.088C267.328 263.776 269.472 263.12 272.192 263.12C273.76 263.12 275.136 263.28 276.32 263.6C277.536 263.92 278.56 264.32 279.392 264.8V262.544C279.392 260.848 278.864 259.616 277.808 258.848C276.784 258.048 275.344 257.648 273.488 257.648C272.112 257.648 270.704 257.872 269.264 258.32C267.856 258.736 266.688 259.328 265.76 260.096V255.392C266.656 254.816 267.952 254.336 269.648 253.952C271.344 253.568 273.12 253.376 274.976 253.376C276.48 253.376 277.952 253.616 279.392 254.096C280.864 254.576 282.064 255.408 282.992 256.592C283.952 257.776 284.432 259.376 284.432 261.392L284.384 272.912C284.384 274.48 283.888 275.68 282.896 276.512C281.936 277.344 280.624 277.92 278.96 278.24C277.296 278.56 275.408 278.72 273.296 278.72ZM268.448 270.752C268.448 271.712 268.72 272.496 269.264 273.104C269.808 273.68 270.48 274.112 271.28 274.4C272.112 274.656 272.976 274.784 273.872 274.784C275.728 274.784 277.104 274.656 278 274.4C278.928 274.112 279.392 273.52 279.392 272.624V267.968C278.656 267.648 277.824 267.392 276.896 267.2C276 267.008 275.04 266.912 274.016 266.912C270.304 266.912 268.448 268.192 268.448 270.752Z" fill="white"/>
<g clip-path="url(#clip0)">
<path d="M196.89 127.42C196.89 103.499 177.464 84.1094 153.499 84.1094C129.536 84.1094 110.026 103.653 110.11 127.571C110.151 139.448 114.984 150.197 122.776 157.997C128.843 164.068 133.283 171.568 135.524 179.845L139.023 192.761H167.468L170.781 180.53C173.072 172.074 177.661 164.442 183.919 158.299C191.926 150.445 196.89 139.511 196.89 127.42Z" stroke="white" stroke-miterlimit="10"/>
<path d="M160.07 207.89H146.202C142.273 207.89 138.912 204.995 138.688 201.321L137.517 187.137L168.926 186.936L167.586 201.321C167.361 204.993 163.999 207.89 160.07 207.89Z" stroke="white" stroke-miterlimit="10"/>
<path d="M166.102 193.12C157.329 193.495 148.524 193.046 139.751 193.433C138.973 193.468 139.03 194.602 139.795 194.628C148.574 194.919 157.378 194.377 166.159 194.655C167.143 194.685 167.1 193.077 166.102 193.12Z" stroke="white" stroke-miterlimit="10"/>
<path d="M166.102 196.924C157.329 197.298 148.524 196.85 139.751 197.237C138.973 197.272 139.03 198.406 139.795 198.432C148.574 198.723 157.378 198.18 166.159 198.458C167.143 198.489 167.1 196.88 166.102 196.924Z" stroke="white" stroke-miterlimit="10"/>
<path d="M172.228 149.471C170.834 148.453 169.75 147.12 168.961 145.621C170.535 143.682 171.228 141.074 171.515 138.651C171.691 137.169 171.741 135.683 171.765 134.193C171.79 132.755 171.599 131.536 170.38 130.641C169.292 129.844 167.841 130.564 167.007 131.337C166.045 132.23 165.578 133.692 165.207 134.911C164.457 137.371 164.471 140.006 164.942 142.514C165.106 143.389 165.352 144.247 165.668 145.079C165.052 145.56 164.354 145.941 163.583 146.186C161.212 146.943 159.412 145.58 158.316 143.562C158.136 143.231 157.965 142.879 157.803 142.514C157.989 142.015 158.167 141.516 158.334 141.023C159.14 138.627 159.586 136.117 159.787 133.6C159.954 131.514 160.013 129.022 158.005 127.787C157.358 127.389 156.632 127.691 156.226 128.253C153.288 132.322 153.453 137.716 155.049 142.33C154.536 143.555 153.933 144.746 153.262 145.895C152.525 147.162 151.12 149.114 149.414 148.867C147.827 148.637 146.557 146.646 145.768 145.416C145.189 144.514 144.735 143.551 144.378 142.549C144.579 142.019 144.768 141.483 144.939 140.94C145.617 138.809 145.996 136.589 146.173 134.364C146.32 132.506 146.382 129.897 144.345 129.006C143.753 128.748 142.878 128.774 142.564 129.472C140.777 133.442 140.435 137.797 141.562 142.004C141.6 142.146 141.646 142.288 141.687 142.43C140.453 145.567 138.576 148.471 136.296 150.942C135.272 152.051 136.892 153.686 137.958 152.6C139.99 150.53 141.681 148.177 143.001 145.623C143.393 146.359 143.834 147.066 144.319 147.735C145.647 149.574 147.314 151.294 149.706 151.423C151.94 151.543 153.755 149.668 154.966 148.04C155.547 147.258 156.055 146.405 156.507 145.518C157.601 147.258 159.18 148.639 161.329 148.939C163.306 149.215 165.223 148.602 166.843 147.519C167.792 149.132 169.02 150.585 170.45 151.78C172.079 153.139 173.945 150.723 172.228 149.471ZM157.283 131.407C157.375 132.444 157.134 133.725 157.077 134.355C156.972 135.504 156.77 136.642 156.505 137.767C156.233 135.554 156.413 133.287 157.283 131.407ZM167.42 137.933C167.501 136.856 167.786 135.795 168.145 134.78C168.308 134.32 168.516 133.887 168.777 133.475C168.797 133.442 168.889 133.326 168.981 133.223C168.994 133.294 169.022 133.394 169.031 133.536C169.169 136.165 168.952 138.999 168.132 141.505C168.031 141.816 167.909 142.118 167.771 142.409C167.426 140.94 167.308 139.415 167.42 137.933Z" stroke="white" stroke-miterlimit="10"/>
<path d="M174.695 143.1C170.081 157.155 165.225 171.141 160.007 184.986C159.382 186.642 161.94 187.658 162.561 186.001C167.76 172.137 172.59 158.146 176.92 143.986C177.367 142.525 175.179 141.627 174.695 143.1Z" stroke="white" stroke-miterlimit="10"/>
<path d="M132.733 142.212C136.414 156.54 139.854 170.936 142.913 185.408C143.279 187.141 145.983 186.625 145.614 184.894C142.529 170.413 139.063 156.025 135.085 141.763C134.675 140.292 132.347 140.71 132.733 142.212Z" stroke="white" stroke-miterlimit="10"/>
</g>
<path d="M208 108L231.5 96" stroke="white"/>
<path d="M190 81.5L204 65.5M154.5 72.5V48" stroke="white"/>
<path d="M103 105L80 92.5" stroke="white"/>
<path d="M122 79.5L110 62" stroke="white"/>
<defs>
<linearGradient id="paint0_linear" x1="157" y1="0" x2="157" y2="336" gradientUnits="userSpaceOnUse">
<stop stop-color="#681B08"/>
<stop offset="1" stop-color="#280800"/>
</linearGradient>
<clipPath id="clip0">
<rect width="87" height="124" fill="white" transform="translate(110 84)"/>
</clipPath>
</defs>
</svg>
