<svg width="314" height="336" viewBox="0 0 314 336" fill="none" xmlns="http://www.w3.org/2000/svg">
<path d="M314 0H0V336H314V0Z" fill="url(#paint0_linear_901_624)"/>
<path d="M176.25 66.7507C178.537 66.7507 180.392 64.8965 180.392 62.6092C180.392 60.3219 178.537 58.4678 176.25 58.4678C173.963 58.4678 172.109 60.3219 172.109 62.6092C172.109 64.8965 173.963 66.7507 176.25 66.7507Z" fill="white"/>
<path d="M176.25 67.2047C175.021 67.2047 173.859 66.7238 172.99 65.8554C171.2 64.0652 171.2 61.1395 172.99 59.3493C173.872 58.4809 175.021 58 176.25 58C177.479 58 178.642 58.4809 179.51 59.3493C180.378 60.2177 180.859 61.38 180.859 62.6091C180.859 63.8381 180.378 65.0004 179.51 65.8688C178.642 66.7238 177.479 67.2047 176.25 67.2047ZM176.25 58.9218C175.262 58.9218 174.34 59.3092 173.645 60.0039C172.202 61.4468 172.202 63.7847 173.645 65.2142C175.088 66.657 177.426 66.657 178.855 65.2142C179.55 64.5195 179.937 63.5977 179.937 62.6091C179.937 61.6204 179.55 60.6986 178.855 60.0039C178.161 59.2959 177.239 58.9218 176.25 58.9218Z" fill="#407BFF"/>
<path d="M177.212 130.422L165.255 142.379C165.255 142.379 157.894 134.123 148.128 135.058C144.521 127.136 140.406 110.263 139.258 105.453L155.556 121.725C155.035 122.687 155.182 123.903 155.984 124.704C156.972 125.693 158.549 125.693 159.537 124.704C160.526 123.716 160.526 122.126 159.537 121.151C158.736 120.349 157.507 120.202 156.558 120.723L140.273 104.438C145.082 105.573 161.955 109.702 169.878 113.309C168.956 123.061 177.212 130.422 177.212 130.422Z" stroke="white" stroke-width="0.728814" stroke-miterlimit="10"/>
<path opacity="0.2" d="M171.24 136.407L177.225 130.422C177.225 130.422 168.969 123.061 169.891 113.309C161.969 109.702 145.096 105.573 140.286 104.438L156.558 120.71C157.52 120.189 158.736 120.322 159.551 121.137C160.526 122.113 160.526 123.716 159.551 124.691" stroke="white" stroke-width="0.728814" stroke-miterlimit="10"/>
<path d="M210.197 175.364C208.099 177.461 204.666 177.461 202.569 175.364L167.513 140.308L175.141 132.68L210.197 167.735C212.294 169.833 212.294 173.266 210.197 175.364Z" stroke="white" stroke-width="0.728814" stroke-miterlimit="10"/>
<path opacity="0.7" d="M210.197 175.364C208.099 177.461 204.666 177.461 202.569 175.364L167.513 140.308L175.141 132.68L210.197 167.735C212.294 169.833 212.294 173.266 210.197 175.364Z" stroke="white" stroke-width="0.728814" stroke-miterlimit="10"/>
<path d="M178.308 137.236L172.069 143.475C171.013 144.53 169.263 144.53 168.208 143.475C167.152 142.419 167.152 140.669 168.208 139.614L174.447 133.375C175.502 132.319 177.252 132.319 178.308 133.375C179.376 134.43 179.376 136.167 178.308 137.236Z" stroke="white" stroke-width="0.728814" stroke-miterlimit="10"/>
<path d="M178.201 133.482L168.315 143.368C167.206 144.476 165.375 144.476 164.267 143.368C163.158 142.259 163.158 140.428 164.267 139.32L174.153 129.434C175.262 128.325 177.092 128.325 178.201 129.434C179.31 130.556 179.31 132.373 178.201 133.482Z" stroke="white" stroke-width="0.728814" stroke-miterlimit="10"/>
<path opacity="0.4" d="M178.201 133.482L168.315 143.368C167.206 144.476 165.375 144.476 164.267 143.368C163.158 142.259 163.158 140.428 164.267 139.32L174.153 129.434C175.262 128.325 177.092 128.325 178.201 129.434C179.31 130.556 179.31 132.373 178.201 133.482Z" stroke="white" stroke-width="0.728814" stroke-miterlimit="10"/>
<path d="M171.868 139.814L172.563 139.119" stroke="white" stroke-width="0.728814" stroke-miterlimit="10"/>
<path d="M168.515 135.071L167.82 135.779" stroke="white" stroke-width="0.728814" stroke-miterlimit="10"/>
<path d="M136.519 180.814C114.703 158.998 114.703 123.502 136.519 101.686C158.335 79.8696 193.831 79.8696 215.648 101.686L215.006 102.327C193.551 80.8715 158.642 80.8715 137.173 102.327C115.718 123.796 115.718 158.704 137.173 180.16L136.519 180.814Z" fill="white"/>
<path d="M175.756 62.4512L97.2842 140.924L97.936 141.576L176.408 63.103L175.756 62.4512Z" fill="white"/>
<path d="M136.846 96.1472L130.98 102.013L136.846 107.88L142.712 102.013L136.846 96.1472Z" fill="white"/>
<path d="M136.853 108.526L130.347 102.02L136.853 95.5137L143.359 102.02L136.853 108.526ZM131.629 102.006L136.839 107.217L142.05 102.006L136.839 96.7962L131.629 102.006Z" fill="#407BFF"/>
<path d="M136.844 174.621L130.978 180.487L136.844 186.354L142.711 180.487L136.844 174.621Z" fill="white"/>
<path d="M136.853 187L130.347 180.494L136.853 173.988L143.359 180.494L136.853 187ZM131.629 180.494L136.839 185.704L142.05 180.494L136.839 175.284L131.629 180.494Z" fill="#407BFF"/>
<path d="M215.491 95.9736L209.624 101.84L215.491 107.706L221.357 101.84L215.491 95.9736Z" fill="white"/>
<path d="M215.487 108.352L208.981 101.846L215.487 95.3401L221.993 101.846L215.487 108.352ZM210.277 101.846L215.487 107.056L220.697 101.846L215.487 96.6359L210.277 101.846Z" fill="#407BFF"/>
<path d="M97.6023 145.398C99.8896 145.398 101.744 143.544 101.744 141.257C101.744 138.97 99.8896 137.115 97.6023 137.115C95.3151 137.115 93.4609 138.97 93.4609 141.257C93.4609 143.544 95.3151 145.398 97.6023 145.398Z" fill="white"/>
<path d="M97.6024 145.853C96.4267 145.853 95.2377 145.398 94.3426 144.503C92.5525 142.713 92.5525 139.787 94.3426 137.997C96.1328 136.207 99.0586 136.207 100.849 137.997C102.639 139.787 102.639 142.713 100.849 144.503C99.967 145.398 98.7914 145.853 97.6024 145.853ZM97.6024 137.57C96.6538 137.57 95.7187 137.93 94.9973 138.652C93.5544 140.095 93.5544 142.433 94.9973 143.862C96.4401 145.305 98.778 145.305 100.207 143.862C101.65 142.419 101.65 140.081 100.207 138.652C99.4994 137.917 98.5509 137.57 97.6024 137.57Z" fill="#407BFF"/>
<path d="M96.3239 261.869H89.9489C89.767 260.824 89.4318 259.898 88.9432 259.091C88.4545 258.273 87.8466 257.58 87.1193 257.011C86.392 256.443 85.5625 256.017 84.6307 255.733C83.7102 255.438 82.7159 255.29 81.6477 255.29C79.75 255.29 78.0682 255.767 76.6023 256.722C75.1364 257.665 73.9886 259.051 73.1591 260.881C72.3295 262.699 71.9148 264.92 71.9148 267.545C71.9148 270.216 72.3295 272.466 73.1591 274.295C74 276.114 75.1477 277.489 76.6023 278.42C78.0682 279.341 79.7443 279.801 81.6307 279.801C82.6761 279.801 83.6534 279.665 84.5625 279.392C85.483 279.108 86.3068 278.693 87.0341 278.148C87.7727 277.602 88.392 276.932 88.892 276.136C89.4034 275.341 89.7557 274.432 89.9489 273.409L96.3239 273.443C96.0852 275.102 95.5682 276.659 94.7727 278.114C93.9886 279.568 92.9602 280.852 91.6875 281.966C90.4148 283.068 88.9261 283.932 87.2216 284.557C85.517 285.17 83.625 285.477 81.5455 285.477C78.4773 285.477 75.7386 284.767 73.3295 283.347C70.9205 281.926 69.0227 279.875 67.6364 277.193C66.25 274.511 65.5568 271.295 65.5568 267.545C65.5568 263.784 66.2557 260.568 67.6534 257.898C69.0511 255.216 70.9545 253.165 73.3636 251.744C75.7727 250.324 78.5 249.614 81.5455 249.614C83.4886 249.614 85.2955 249.886 86.9659 250.432C88.6364 250.977 90.125 251.778 91.4318 252.835C92.7386 253.881 93.8125 255.165 94.6534 256.688C95.5057 258.199 96.0625 259.926 96.3239 261.869ZM113.263 285.511C110.706 285.511 108.49 284.949 106.615 283.824C104.74 282.699 103.286 281.125 102.251 279.102C101.229 277.08 100.717 274.716 100.717 272.011C100.717 269.307 101.229 266.937 102.251 264.903C103.286 262.869 104.74 261.29 106.615 260.165C108.49 259.04 110.706 258.477 113.263 258.477C115.82 258.477 118.036 259.04 119.911 260.165C121.786 261.29 123.234 262.869 124.257 264.903C125.291 266.937 125.808 269.307 125.808 272.011C125.808 274.716 125.291 277.08 124.257 279.102C123.234 281.125 121.786 282.699 119.911 283.824C118.036 284.949 115.82 285.511 113.263 285.511ZM113.297 280.568C114.683 280.568 115.842 280.187 116.774 279.426C117.706 278.653 118.399 277.619 118.854 276.324C119.32 275.028 119.553 273.585 119.553 271.994C119.553 270.392 119.32 268.943 118.854 267.648C118.399 266.341 117.706 265.301 116.774 264.528C115.842 263.756 114.683 263.369 113.297 263.369C111.876 263.369 110.695 263.756 109.751 264.528C108.82 265.301 108.121 266.341 107.655 267.648C107.2 268.943 106.973 270.392 106.973 271.994C106.973 273.585 107.2 275.028 107.655 276.324C108.121 277.619 108.82 278.653 109.751 279.426C110.695 280.187 111.876 280.568 113.297 280.568ZM137.216 269.659V285H131.045V258.818H136.943V263.267H137.25C137.852 261.801 138.813 260.636 140.131 259.773C141.46 258.909 143.102 258.477 145.057 258.477C146.864 258.477 148.438 258.864 149.778 259.636C151.131 260.409 152.176 261.528 152.915 262.994C153.665 264.46 154.034 266.239 154.023 268.33V285H147.852V269.284C147.852 267.534 147.398 266.165 146.489 265.176C145.591 264.187 144.347 263.693 142.756 263.693C141.676 263.693 140.716 263.932 139.875 264.409C139.045 264.875 138.392 265.551 137.915 266.438C137.449 267.324 137.216 268.398 137.216 269.659ZM180.989 265.739L175.364 266.352C175.205 265.784 174.926 265.25 174.528 264.75C174.142 264.25 173.619 263.847 172.96 263.54C172.301 263.233 171.494 263.08 170.54 263.08C169.256 263.08 168.176 263.358 167.301 263.915C166.438 264.472 166.011 265.193 166.023 266.08C166.011 266.841 166.29 267.46 166.858 267.938C167.438 268.415 168.392 268.807 169.722 269.114L174.188 270.068C176.665 270.602 178.506 271.449 179.71 272.608C180.926 273.767 181.54 275.284 181.551 277.159C181.54 278.807 181.057 280.261 180.102 281.523C179.159 282.773 177.847 283.75 176.165 284.455C174.483 285.159 172.551 285.511 170.369 285.511C167.165 285.511 164.585 284.841 162.631 283.5C160.676 282.148 159.511 280.267 159.136 277.858L165.153 277.278C165.426 278.46 166.006 279.352 166.892 279.955C167.778 280.557 168.932 280.858 170.352 280.858C171.818 280.858 172.994 280.557 173.881 279.955C174.778 279.352 175.227 278.608 175.227 277.722C175.227 276.972 174.938 276.352 174.358 275.864C173.79 275.375 172.903 275 171.699 274.739L167.233 273.801C164.722 273.278 162.864 272.398 161.659 271.159C160.455 269.909 159.858 268.33 159.869 266.42C159.858 264.807 160.295 263.409 161.182 262.227C162.08 261.034 163.324 260.114 164.915 259.466C166.517 258.807 168.364 258.477 170.455 258.477C173.523 258.477 175.938 259.131 177.699 260.438C179.472 261.744 180.568 263.511 180.989 265.739ZM186.639 285V258.818H192.81V285H186.639ZM189.741 255.102C188.764 255.102 187.923 254.778 187.219 254.131C186.514 253.472 186.162 252.682 186.162 251.761C186.162 250.83 186.514 250.04 187.219 249.392C187.923 248.733 188.764 248.403 189.741 248.403C190.73 248.403 191.571 248.733 192.264 249.392C192.969 250.04 193.321 250.83 193.321 251.761C193.321 252.682 192.969 253.472 192.264 254.131C191.571 254.778 190.73 255.102 189.741 255.102ZM205.325 250.091V285H199.155V250.091H205.325ZM211.67 285V258.818H217.841V285H211.67ZM214.773 255.102C213.795 255.102 212.955 254.778 212.25 254.131C211.545 253.472 211.193 252.682 211.193 251.761C211.193 250.83 211.545 250.04 212.25 249.392C212.955 248.733 213.795 248.403 214.773 248.403C215.761 248.403 216.602 248.733 217.295 249.392C218 250.04 218.352 250.83 218.352 251.761C218.352 252.682 218 253.472 217.295 254.131C216.602 254.778 215.761 255.102 214.773 255.102ZM235.607 285.511C233.05 285.511 230.834 284.949 228.959 283.824C227.084 282.699 225.629 281.125 224.595 279.102C223.572 277.08 223.061 274.716 223.061 272.011C223.061 269.307 223.572 266.937 224.595 264.903C225.629 262.869 227.084 261.29 228.959 260.165C230.834 259.04 233.05 258.477 235.607 258.477C238.163 258.477 240.379 259.04 242.254 260.165C244.129 261.29 245.578 262.869 246.601 264.903C247.635 266.937 248.152 269.307 248.152 272.011C248.152 274.716 247.635 277.08 246.601 279.102C245.578 281.125 244.129 282.699 242.254 283.824C240.379 284.949 238.163 285.511 235.607 285.511ZM235.641 280.568C237.027 280.568 238.186 280.187 239.118 279.426C240.05 278.653 240.743 277.619 241.197 276.324C241.663 275.028 241.896 273.585 241.896 271.994C241.896 270.392 241.663 268.943 241.197 267.648C240.743 266.341 240.05 265.301 239.118 264.528C238.186 263.756 237.027 263.369 235.641 263.369C234.22 263.369 233.038 263.756 232.095 264.528C231.163 265.301 230.464 266.341 229.999 267.648C229.544 268.943 229.317 270.392 229.317 271.994C229.317 273.585 229.544 275.028 229.999 276.324C230.464 277.619 231.163 278.653 232.095 279.426C233.038 280.187 234.22 280.568 235.641 280.568Z" fill="white"/>
<defs>
<linearGradient id="paint0_linear_901_624" x1="157" y1="0" x2="157" y2="336" gradientUnits="userSpaceOnUse">
<stop stop-color="#004C5E"/>
<stop offset="1" stop-color="#002229"/>
</linearGradient>
</defs>
</svg>
