<svg width="314" height="336" viewBox="0 0 314 336" fill="none" xmlns="http://www.w3.org/2000/svg">
<rect width="314" height="336" fill="url(#paint0_linear)"/>
<path d="M67.5728 265.56C61.7115 265.56 57.2875 263.973 54.3008 260.8C51.3141 257.627 49.8208 252.792 49.8208 246.296C49.8208 233.453 55.7381 227.032 67.5728 227.032C69.5515 227.032 71.5115 227.275 73.4528 227.76C75.3941 228.245 77.2981 228.917 79.1648 229.776V235.32C77.3355 234.237 75.5061 233.453 73.6768 232.968C71.8848 232.445 70.1115 232.184 68.3568 232.184C64.2501 232.184 61.1888 233.285 59.1728 235.488C57.1941 237.691 56.2048 241.312 56.2048 246.352C56.2048 251.355 57.1941 254.939 59.1728 257.104C61.1888 259.269 64.3061 260.352 68.5248 260.352C70.2048 260.352 71.9408 260.128 73.7328 259.68C75.5248 259.195 77.3355 258.411 79.1648 257.328V262.872C77.4475 263.693 75.5808 264.347 73.5648 264.832C71.5488 265.317 69.5515 265.56 67.5728 265.56ZM98.3168 265.84C93.7621 265.84 90.3648 264.552 88.1248 261.976C85.9221 259.4 84.8208 255.723 84.8208 250.944C84.8208 245.904 85.9595 242.189 88.2368 239.8C90.5515 237.411 93.8928 236.216 98.2608 236.216C102.853 236.216 106.269 237.504 108.509 240.08C110.749 242.619 111.869 246.24 111.869 250.944C111.869 255.685 110.693 259.363 108.341 261.976C105.989 264.552 102.647 265.84 98.3168 265.84ZM98.2608 260.856C101.098 260.856 103.095 259.941 104.253 258.112C105.41 256.283 105.989 253.893 105.989 250.944C105.989 247.733 105.391 245.307 104.197 243.664C103.002 241.984 101.023 241.144 98.2608 241.144C95.4235 241.144 93.4448 242.021 92.3248 243.776C91.2048 245.493 90.6448 247.883 90.6448 250.944C90.6448 254.043 91.2235 256.469 92.3808 258.224C93.5381 259.979 95.4981 260.856 98.2608 260.856ZM118.652 239.184C120.294 238.325 122.31 237.635 124.7 237.112C127.126 236.552 129.46 236.272 131.7 236.272C135.657 236.272 138.55 237.112 140.38 238.792C142.246 240.435 143.18 242.973 143.18 246.408V265H137.3V247.192C137.3 246.259 137.132 245.344 136.796 244.448C136.46 243.552 135.806 242.805 134.836 242.208C133.902 241.611 132.502 241.312 130.636 241.312C129.59 241.312 128.545 241.405 127.5 241.592C126.454 241.779 125.465 242.04 124.532 242.376V265H118.652V239.184ZM159.584 265.84C157.568 265.84 155.851 265.635 154.432 265.224C153.051 264.813 151.688 264.272 150.344 263.6V258.056C151.8 258.952 153.219 259.699 154.6 260.296C156.019 260.856 157.68 261.136 159.584 261.136C161.227 261.136 162.496 260.819 163.392 260.184C164.288 259.512 164.736 258.653 164.736 257.608C164.736 256.749 164.438 256.077 163.84 255.592C163.28 255.069 162.552 254.659 161.656 254.36C160.76 254.024 159.827 253.688 158.856 253.352C157.512 253.016 156.168 252.568 154.824 252.008C153.518 251.411 152.435 250.571 151.576 249.488C150.718 248.405 150.288 246.912 150.288 245.008C150.288 242.917 150.83 241.237 151.912 239.968C152.995 238.699 154.339 237.784 155.944 237.224C157.587 236.627 159.211 236.328 160.816 236.328C162.795 236.365 164.4 236.608 165.632 237.056C166.902 237.504 168.152 238.027 169.384 238.624V243.72C168.003 243.011 166.715 242.395 165.52 241.872C164.363 241.349 163 241.088 161.432 241.088C159.939 241.088 158.707 241.368 157.736 241.928C156.803 242.451 156.336 243.235 156.336 244.28C156.336 245.176 156.598 245.885 157.12 246.408C157.68 246.931 158.39 247.36 159.248 247.696C160.144 247.995 161.096 248.275 162.104 248.536C163.038 248.797 164.008 249.115 165.016 249.488C166.024 249.824 166.958 250.291 167.816 250.888C168.675 251.448 169.366 252.213 169.888 253.184C170.448 254.155 170.728 255.405 170.728 256.936C170.728 259.064 170.168 260.781 169.048 262.088C167.966 263.395 166.584 264.347 164.904 264.944C163.224 265.541 161.451 265.84 159.584 265.84ZM189.645 265.84C185.09 265.84 181.693 264.552 179.453 261.976C177.25 259.4 176.149 255.723 176.149 250.944C176.149 245.904 177.288 242.189 179.565 239.8C181.88 237.411 185.221 236.216 189.589 236.216C194.181 236.216 197.597 237.504 199.837 240.08C202.077 242.619 203.197 246.24 203.197 250.944C203.197 255.685 202.021 259.363 199.669 261.976C197.317 264.552 193.976 265.84 189.645 265.84ZM189.589 260.856C192.426 260.856 194.424 259.941 195.581 258.112C196.738 256.283 197.317 253.893 197.317 250.944C197.317 247.733 196.72 245.307 195.525 243.664C194.33 241.984 192.352 241.144 189.589 241.144C186.752 241.144 184.773 242.021 183.653 243.776C182.533 245.493 181.973 247.883 181.973 250.944C181.973 254.043 182.552 256.469 183.709 258.224C184.866 259.979 186.826 260.856 189.589 260.856ZM215.804 265H209.98V226.248H215.804V265ZM224.089 232.408V227.088H230.361V232.408H224.089ZM224.257 265V237.056H230.137L230.193 265H224.257ZM250.676 265.84C246.122 265.84 242.724 264.552 240.484 261.976C238.282 259.4 237.18 255.723 237.18 250.944C237.18 245.904 238.319 242.189 240.596 239.8C242.911 237.411 246.252 236.216 250.62 236.216C255.212 236.216 258.628 237.504 260.868 240.08C263.108 242.619 264.228 246.24 264.228 250.944C264.228 255.685 263.052 259.363 260.7 261.976C258.348 264.552 255.007 265.84 250.676 265.84ZM250.62 260.856C253.458 260.856 255.455 259.941 256.612 258.112C257.77 256.283 258.348 253.893 258.348 250.944C258.348 247.733 257.751 245.307 256.556 243.664C255.362 241.984 253.383 241.144 250.62 241.144C247.783 241.144 245.804 242.021 244.684 243.776C243.564 245.493 243.004 247.883 243.004 250.944C243.004 254.043 243.583 256.469 244.74 258.224C245.898 259.979 247.858 260.856 250.62 260.856Z" fill="white"/>
<path d="M177.212 130.422L165.255 142.379C165.255 142.379 157.894 134.123 148.128 135.058C144.521 127.136 140.406 110.263 139.258 105.453L155.556 121.725C155.035 122.687 155.182 123.903 155.984 124.704C156.972 125.693 158.549 125.693 159.537 124.704C160.526 123.716 160.526 122.126 159.537 121.151C158.736 120.349 157.507 120.202 156.558 120.723L140.273 104.438C145.082 105.573 161.955 109.702 169.878 113.309C168.956 123.061 177.212 130.422 177.212 130.422Z" stroke="white" stroke-width="0.728814" stroke-miterlimit="10"/>
<path opacity="0.2" d="M171.24 136.407L177.225 130.422C177.225 130.422 168.969 123.061 169.891 113.309C161.969 109.702 145.096 105.573 140.286 104.438L156.558 120.71C157.52 120.189 158.736 120.322 159.551 121.137C160.526 122.113 160.526 123.716 159.551 124.691" stroke="white" stroke-width="0.728814" stroke-miterlimit="10"/>
<path d="M210.197 175.364C208.099 177.461 204.666 177.461 202.569 175.364L167.513 140.308L175.141 132.68L210.197 167.735C212.294 169.833 212.294 173.266 210.197 175.364Z" stroke="white" stroke-width="0.728814" stroke-miterlimit="10"/>
<path opacity="0.7" d="M210.197 175.364C208.099 177.461 204.666 177.461 202.569 175.364L167.513 140.308L175.141 132.68L210.197 167.735C212.294 169.833 212.294 173.266 210.197 175.364Z" stroke="white" stroke-width="0.728814" stroke-miterlimit="10"/>
<path d="M178.308 137.236L172.069 143.475C171.013 144.53 169.263 144.53 168.208 143.475C167.152 142.419 167.152 140.669 168.208 139.614L174.447 133.375C175.502 132.319 177.252 132.319 178.308 133.375C179.376 134.43 179.376 136.167 178.308 137.236Z" stroke="white" stroke-width="0.728814" stroke-miterlimit="10"/>
<path d="M178.201 133.482L168.315 143.368C167.206 144.476 165.375 144.476 164.267 143.368C163.158 142.259 163.158 140.428 164.267 139.32L174.153 129.434C175.262 128.325 177.092 128.325 178.201 129.434C179.31 130.556 179.31 132.373 178.201 133.482Z" stroke="white" stroke-width="0.728814" stroke-miterlimit="10"/>
<path opacity="0.4" d="M178.201 133.482L168.315 143.368C167.206 144.476 165.375 144.476 164.267 143.368C163.158 142.259 163.158 140.428 164.267 139.32L174.153 129.434C175.262 128.325 177.092 128.325 178.201 129.434C179.31 130.556 179.31 132.373 178.201 133.482Z" stroke="white" stroke-width="0.728814" stroke-miterlimit="10"/>
<path d="M171.868 139.814L172.563 139.119" stroke="white" stroke-width="0.728814" stroke-miterlimit="10"/>
<path d="M168.515 135.071L167.82 135.779" stroke="white" stroke-width="0.728814" stroke-miterlimit="10"/>
<path d="M136.519 180.814C114.703 158.998 114.703 123.502 136.519 101.686C158.335 79.8696 193.831 79.8696 215.648 101.686L215.006 102.327C193.551 80.8715 158.642 80.8715 137.173 102.327C115.718 123.796 115.718 158.704 137.173 180.16L136.519 180.814Z" fill="white"/>
<path d="M175.756 62.4512L97.2838 140.924L97.9356 141.576L176.408 63.103L175.756 62.4512Z" fill="white"/>
<path d="M136.846 96.1471L130.98 102.013L136.846 107.88L142.712 102.013L136.846 96.1471Z" fill="white"/>
<path d="M136.853 108.526L130.347 102.02L136.853 95.5137L143.359 102.02L136.853 108.526ZM131.629 102.006L136.839 107.217L142.05 102.006L136.839 96.7962L131.629 102.006Z" fill="#407BFF"/>
<path d="M136.844 174.621L130.978 180.487L136.844 186.354L142.711 180.487L136.844 174.621Z" fill="white"/>
<path d="M136.853 187L130.347 180.494L136.853 173.988L143.359 180.494L136.853 187ZM131.629 180.494L136.839 185.704L142.05 180.494L136.839 175.284L131.629 180.494Z" fill="#407BFF"/>
<path d="M215.491 95.9737L209.624 101.84L215.491 107.706L221.357 101.84L215.491 95.9737Z" fill="white"/>
<path d="M215.487 108.352L208.981 101.846L215.487 95.34L221.993 101.846L215.487 108.352ZM210.277 101.846L215.487 107.056L220.697 101.846L215.487 96.6358L210.277 101.846Z" fill="#407BFF"/>
<path d="M176.25 66.7506C178.537 66.7506 180.392 64.8964 180.392 62.6091C180.392 60.3218 178.537 58.4677 176.25 58.4677C173.963 58.4677 172.109 60.3218 172.109 62.6091C172.109 64.8964 173.963 66.7506 176.25 66.7506Z" fill="white"/>
<path d="M176.25 67.2047C175.021 67.2047 173.859 66.7238 172.99 65.8554C171.2 64.0652 171.2 61.1395 172.99 59.3493C173.872 58.4809 175.021 58 176.25 58C177.479 58 178.642 58.4809 179.51 59.3493C180.378 60.2177 180.859 61.38 180.859 62.6091C180.859 63.8381 180.378 65.0004 179.51 65.8688C178.642 66.7238 177.479 67.2047 176.25 67.2047ZM176.25 58.9218C175.262 58.9218 174.34 59.3092 173.645 60.0039C172.202 61.4468 172.202 63.7847 173.645 65.2142C175.088 66.657 177.426 66.657 178.855 65.2142C179.55 64.5195 179.937 63.5977 179.937 62.6091C179.937 61.6204 179.55 60.6986 178.855 60.0039C178.161 59.2959 177.239 58.9218 176.25 58.9218Z" fill="#407BFF"/>
<path d="M97.6023 145.398C99.8896 145.398 101.744 143.544 101.744 141.257C101.744 138.97 99.8896 137.115 97.6023 137.115C95.3151 137.115 93.4609 138.97 93.4609 141.257C93.4609 143.544 95.3151 145.398 97.6023 145.398Z" fill="white"/>
<path d="M97.6024 145.853C96.4267 145.853 95.2377 145.398 94.3426 144.503C92.5525 142.713 92.5525 139.787 94.3426 137.997C96.1328 136.207 99.0586 136.207 100.849 137.997C102.639 139.787 102.639 142.713 100.849 144.503C99.967 145.398 98.7914 145.853 97.6024 145.853ZM97.6024 137.57C96.6538 137.57 95.7187 137.93 94.9973 138.652C93.5544 140.095 93.5544 142.433 94.9973 143.862C96.4401 145.305 98.778 145.305 100.207 143.862C101.65 142.419 101.65 140.081 100.207 138.652C99.4994 137.917 98.5509 137.57 97.6024 137.57Z" fill="#407BFF"/>
<defs>
<linearGradient id="paint0_linear" x1="157" y1="0" x2="157" y2="336" gradientUnits="userSpaceOnUse">
<stop stop-color="#004C5E"/>
<stop offset="1" stop-color="#002229"/>
</linearGradient>
</defs>
</svg>
