<svg width="20" height="20" viewBox="0 0 20 20" fill="none" xmlns="http://www.w3.org/2000/svg">
<path d="M14.348 14.8489C14.123 15.0739 13.8178 15.2003 13.4995 15.2003C13.1813 15.2003 12.8761 15.0739 12.651 14.8489L10 11.8189L7.34901 14.8479C7.23792 14.9608 7.10556 15.0506 6.95959 15.1121C6.81361 15.1736 6.6569 15.2056 6.49849 15.2063C6.34008 15.2069 6.18311 15.1762 6.03664 15.1159C5.89017 15.0555 5.75709 14.9668 5.64507 14.8548C5.53306 14.7428 5.44434 14.6097 5.38401 14.4632C5.32369 14.3168 5.29297 14.1598 5.29361 14.0014C5.29426 13.843 5.32626 13.6863 5.38777 13.5403C5.44929 13.3943 5.53909 13.262 5.65201 13.1509L8.41001 10.0009L5.65101 6.84887C5.53809 6.73777 5.44829 6.60542 5.38677 6.45944C5.32526 6.31346 5.29326 6.15675 5.29261 5.99834C5.29197 5.83994 5.32269 5.68297 5.38301 5.5365C5.44334 5.39002 5.53206 5.25694 5.64407 5.14493C5.75609 5.03292 5.88917 4.94419 6.03564 4.88387C6.18211 4.82355 6.33908 4.79282 6.49749 4.79347C6.6559 4.79411 6.81261 4.82611 6.95859 4.88763C7.10456 4.94914 7.23692 5.03895 7.34801 5.15187L10 8.18287L12.651 5.15187C12.7621 5.03895 12.8945 4.94914 13.0404 4.88763C13.1864 4.82611 13.3431 4.79411 13.5015 4.79347C13.6599 4.79282 13.8169 4.82355 13.9634 4.88387C14.1099 4.94419 14.2429 5.03292 14.355 5.14493C14.467 5.25694 14.5557 5.39002 14.616 5.5365C14.6763 5.68297 14.7071 5.83994 14.7064 5.99834C14.7058 6.15675 14.6738 6.31346 14.6123 6.45944C14.5507 6.60542 14.4609 6.73777 14.348 6.84887L11.59 10.0009L14.348 13.1509C14.4596 13.2623 14.5481 13.3947 14.6085 13.5403C14.6689 13.686 14.7 13.8422 14.7 13.9999C14.7 14.1576 14.6689 14.3137 14.6085 14.4594C14.5481 14.6051 14.4596 14.7374 14.348 14.8489V14.8489Z" fill="white"/>
</svg>
