<svg width="54" height="54" viewBox="0 0 54 54" fill="none" xmlns="http://www.w3.org/2000/svg">
<circle cx="27" cy="27" r="27" fill="white"/>
<path d="M54 27C54 34.1608 51.1554 41.0284 46.0919 46.0919C41.0284 51.1554 34.1608 54 27 54C19.8392 54 12.9716 51.1554 7.90812 46.0919C2.84464 41.0284 0 34.1608 0 27C0 19.8392 2.84464 12.9716 7.90812 7.90812C12.9716 2.84464 19.8392 0 27 0C34.1608 0 41.0284 2.84464 46.0919 7.90812C51.1554 12.9716 54 19.8392 54 27ZM28.6875 15.1875C28.6875 14.7399 28.5097 14.3107 28.1932 13.9943C27.8768 13.6778 27.4476 13.5 27 13.5C26.5524 13.5 26.1232 13.6778 25.8068 13.9943C25.4903 14.3107 25.3125 14.7399 25.3125 15.1875V34.7389L18.0697 27.4928C17.7529 27.1759 17.3231 26.9979 16.875 26.9979C16.4269 26.9979 15.9971 27.1759 15.6803 27.4928C15.3634 27.8096 15.1854 28.2394 15.1854 28.6875C15.1854 29.1356 15.3634 29.5654 15.6803 29.8822L25.8053 40.0073C25.962 40.1644 26.1482 40.2891 26.3532 40.3742C26.5583 40.4592 26.778 40.503 27 40.503C27.222 40.503 27.4417 40.4592 27.6468 40.3742C27.8518 40.2891 28.038 40.1644 28.1947 40.0073L38.3198 29.8822C38.6366 29.5654 38.8146 29.1356 38.8146 28.6875C38.8146 28.2394 38.6366 27.8096 38.3198 27.4928C38.0029 27.1759 37.5731 26.9979 37.125 26.9979C36.6769 26.9979 36.2471 27.1759 35.9302 27.4928L28.6875 34.7389V15.1875Z" fill="#1579D6"/>
</svg>
